<?xml version="1.0" encoding="utf-8"?>
<!-- Generator: Adobe Illustrator 25.2.1, SVG Export Plug-In . SVG Version: 6.00 Build 0)  -->
<svg version="1.1" id="Réteg_1" xmlns="http://www.w3.org/2000/svg" xmlns:xlink="http://www.w3.org/1999/xlink" x="0px" y="0px"
	 viewBox="0 0 16 16" style="enable-background:new 0 0 16 16;" xml:space="preserve">
<style type="text/css">
	.st0{fill:#FFFFFF;}
</style>
<path class="st0" d="M1.5,15C1.2,15,1,15.2,1,15.5S1.2,16,1.5,16h13c0.3,0,0.5-0.2,0.5-0.5S14.8,15,14.5,15H13V2.5
	C13,1.7,12.3,1,11.5,1H11V0.5C11,0.2,10.8,0,10.5,0c0,0,0,0-0.1,0l-7,1C3.2,1,3,1.3,3,1.5V15H1.5z M11,2h0.5C11.8,2,12,2.2,12,2.5
	V15h-1V2z M8.5,10C8.2,10,8,9.6,8,9s0.2-1,0.5-1S9,8.4,9,9S8.8,10,8.5,10z"/>
</svg>
