<?xml version="1.0" encoding="utf-8"?>
<!-- Generator: Adobe Illustrator 25.2.1, SVG Export Plug-In . SVG Version: 6.00 Build 0)  -->
<svg version="1.1" id="Réteg_1" xmlns="http://www.w3.org/2000/svg" xmlns:xlink="http://www.w3.org/1999/xlink" x="0px" y="0px"
	 viewBox="0 0 16 16" style="enable-background:new 0 0 16 16;" xml:space="preserve">
<style type="text/css">
	.st0{fill:#FFFFFF;}
</style>
<path class="st0" d="M12,1c0.6,0,1,0.4,1,1v13h1.5c0.3,0,0.5,0.2,0.5,0.5S14.8,16,14.5,16h-13C1.2,16,1,15.8,1,15.5S1.2,15,1.5,15H3
	V2c0-0.6,0.4-1,1-1H12z M10,10c0.6,0,1-0.4,1-1s-0.4-1-1-1S9,8.4,9,9S9.4,10,10,10z"/>
</svg>
