<?xml version="1.0" encoding="utf-8"?>
<!-- Generator: Adobe Illustrator 25.2.1, SVG Export Plug-In . SVG Version: 6.00 Build 0)  -->
<svg version="1.1" id="Réteg_1" xmlns="http://www.w3.org/2000/svg" xmlns:xlink="http://www.w3.org/1999/xlink" x="0px" y="0px"
	 viewBox="0 0 16 16" style="enable-background:new 0 0 16 16;" xml:space="preserve">
<style type="text/css">
	.st0{fill-rule:evenodd;clip-rule:evenodd;fill:#FFFFFF;}
</style>
<g>
	<path class="st0" d="M8.5,6H7V4.6c0-0.1-0.1-0.2-0.3-0.2c-0.1,0-0.1,0-0.2,0.1l-2.4,2c-0.1,0.1-0.1,0.2,0,0.4l2.4,2
		c0.1,0.1,0.3,0.1,0.4,0C7,8.6,7,8.5,7,8.5V7h1.5C9.3,7,10,7.7,10,8.5v2.5h1V8.5C10.9,7.1,9.9,6,8.5,6z"/>
	<path class="st0" d="M15.5,7L9,0.5C8.4,0,7.5,0,6.9,0.5L0.5,6.9C0,7.5,0,8.4,0.5,9L7,15.5c0.6,0.6,1.5,0.6,2.1,0l6.4-6.4
		C16,8.5,16,7.6,15.5,7z M14.7,8.3l-6.4,6.4c-0.2,0.2-0.5,0.2-0.7,0L1.2,8.3C1,8.1,1,7.8,1.2,7.6l6.4-6.4C7.8,1,8.1,1,8.3,1.2
		l6.4,6.4C14.9,7.8,14.9,8.1,14.7,8.3z"/>
</g>
</svg>
