<?xml version="1.0" encoding="utf-8"?>
<!-- Generator: Adobe Illustrator 25.2.1, SVG Export Plug-In . SVG Version: 6.00 Build 0)  -->
<svg version="1.1" id="Réteg_1" xmlns="http://www.w3.org/2000/svg" xmlns:xlink="http://www.w3.org/1999/xlink" x="0px" y="0px"
	 viewBox="0 0 16 16" style="enable-background:new 0 0 16 16;" xml:space="preserve">
<style type="text/css">
	.st0{fill:#FFFFFF;}
	.st1{fill-rule:evenodd;clip-rule:evenodd;fill:#FFFFFF;}
</style>
<path class="st0" d="M10.8,9.1c0.3-1.4-0.6-2.7-2-2.9L7.3,5.9l0.3-1.4c0-0.1-0.1-0.3-0.2-0.3c-0.1,0-0.1,0-0.2,0L4.5,5.7
	C4.4,5.8,4.4,5.9,4.4,6c0,0,0,0,0,0l1.9,2.4c0.1,0.1,0.2,0.1,0.4,0c0,0,0.1-0.1,0.1-0.1l0.3-1.4l1.5,0.3C9.4,7.3,10,8.1,9.8,8.9
	l-0.5,2.5l1,0.2L10.8,9.1z"/>
<path class="st1" d="M6.9,0.4c0.6-0.6,1.5-0.6,2.1,0L15.6,7c0.6,0.6,0.6,1.5,0,2.1l-6.5,6.5c-0.6,0.6-1.5,0.6-2.1,0L0.4,9
	c-0.6-0.6-0.6-1.5,0-2.1c0,0,0,0,0,0L6.9,0.4z M8.3,1.1c-0.2-0.2-0.5-0.2-0.7,0L1.1,7.6c-0.2,0.2-0.2,0.5,0,0.7l6.5,6.5
	c0.2,0.2,0.5,0.2,0.7,0l6.5-6.5c0.2-0.2,0.2-0.5,0-0.7L8.3,1.1L8.3,1.1z"/>
</svg>
