<?xml version="1.0" encoding="utf-8"?>
<!-- Generator: Adobe Illustrator 25.2.1, SVG Export Plug-In . SVG Version: 6.00 Build 0)  -->
<svg version="1.1" id="Réteg_1" xmlns="http://www.w3.org/2000/svg" xmlns:xlink="http://www.w3.org/1999/xlink" x="0px" y="0px"
	 viewBox="0 0 16 16" style="enable-background:new 0 0 16 16;" xml:space="preserve">
<style type="text/css">
	.st0{fill-rule:evenodd;clip-rule:evenodd;}
</style>
<path d="M11.4,8.8c0-1.4-1.1-2.5-2.5-2.5H7.4V4.9c0-0.1-0.1-0.2-0.2-0.2c-0.1,0-0.1,0-0.2,0.1L4.7,6.7C4.6,6.8,4.6,6.9,4.7,7
	c0,0,0,0,0,0L7,9c0.1,0.1,0.3,0.1,0.3,0c0,0,0.1-0.1,0.1-0.2V7.4h1.5c0.8,0,1.5,0.7,1.5,1.5v2.5h1V8.8z"/>
<path class="st0" d="M7,0.5C7.5,0,8.5,0,9,0.5L15.5,7C16,7.5,16,8.5,15.5,9L9,15.5C8.5,16,7.5,16,7,15.5L0.5,9C0,8.5,0,7.5,0.5,7
	c0,0,0,0,0,0L7,0.5z M8.3,1.2C8.2,1,7.8,1,7.7,1.2L1.2,7.7C1,7.8,1,8.2,1.2,8.3l6.4,6.4c0.2,0.2,0.5,0.2,0.7,0l6.4-6.4
	c0.2-0.2,0.2-0.5,0-0.7L8.3,1.2L8.3,1.2z"/>
</svg>
