<?xml version="1.0" encoding="utf-8"?>
<!-- Generator: Adobe Illustrator 25.2.1, SVG Export Plug-In . SVG Version: 6.00 Build 0)  -->
<svg version="1.1" id="Réteg_1" xmlns="http://www.w3.org/2000/svg" xmlns:xlink="http://www.w3.org/1999/xlink" x="0px" y="0px"
	 viewBox="0 0 16 16" style="enable-background:new 0 0 16 16;" xml:space="preserve">
<style type="text/css">
	.st0{fill:#FFFFFF;}
</style>
<g>
	<path class="st0" d="M8.4,5.1H6.8v2.8h1.5c1,0,1.6-0.5,1.6-1.4C10,5.6,9.4,5.1,8.4,5.1z"/>
	<path class="st0" d="M14,0H2C0.9,0,0,0.9,0,2v12c0,1.1,0.9,2,2,2h12c1.1,0,2-0.9,2-2V2C16,0.9,15.1,0,14,0z M10,12L8.5,8.9H6.8V12
		H5.5V4h3.1c1.7,0,2.7,1,2.7,2.5c0,1.1-0.7,1.9-1.5,2.2l1.6,3.3H10z"/>
</g>
</svg>
