<?xml version="1.0" encoding="utf-8"?>
<!-- Generator: Adobe Illustrator 25.2.1, SVG Export Plug-In . SVG Version: 6.00 Build 0)  -->
<svg version="1.1" id="Layer_1" xmlns="http://www.w3.org/2000/svg" xmlns:xlink="http://www.w3.org/1999/xlink" x="0px" y="0px"
	 viewBox="0 0 145 145" style="enable-background:new 0 0 145 145;" xml:space="preserve">
<style type="text/css">
	.st0{fill:#CECECE;}
	.st1{fill:#F1C9A5;}
	.st2{fill:#E4B692;}
	.st3{opacity:0.1;fill:#DDAC8C;enable-background:new    ;}
	.st4{fill:#3873F9;}
	.st5{fill:#1B4E3B;}
</style>
<g id="men_6">
	<rect y="0" class="st0" width="145" height="145"/>
	<g>
		<g>
			<g>
				<g>
					<path class="st1" d="M109.4,115.4c-5-9.4-36.9-15.3-36.9-15.3s-30.7,5.6-36.5,15.6c-3.7,13-6.5,29.3-6.5,29.3l43,0.1h42.8
						C115.3,145,114,127.2,109.4,115.4z"/>
					<path class="st2" d="M72.5,100.1c0,0,31.9,5.9,36.9,15.3c4.7,11.8,6.1,29.6,6.1,29.6h-43V100.1z"/>
					<rect x="63.8" y="81" class="st1" width="17.4" height="29.1"/>
					<rect x="72.5" y="81" class="st2" width="8.7" height="29.1"/>
					<path class="st3" d="M63.8,94.5c1.6,4.5,7.9,7.1,12.5,7.1c1.7,0,3.3-0.3,4.9-0.8V81H63.8V94.5z"/>
					<path class="st1" d="M94.8,62.7c0-18.2-10-28.5-22.3-28.5c-12.3,0-22.3,10.3-22.3,28.5c0,24.4,10,32.9,22.3,32.9
						C84.8,95.5,94.8,86.1,94.8,62.7z"/>
					<path class="st2" d="M91.4,75.2c-4-0.4-6.8-4.8-6.1-9.7c0.7-5,4.5-8.6,8.6-8.2c4,0.4,6.8,4.8,6.1,9.7
						C99.3,72,95.5,75.7,91.4,75.2z"/>
					<path class="st1" d="M45.2,67c-0.7-5,2-9.3,6.1-9.7c4.1-0.4,7.9,3.3,8.6,8.2c0.7,5-2.1,9.3-6.1,9.7C49.7,75.7,45.8,72,45.2,67z
						"/>
					<path class="st2" d="M94.8,62.7c0-18.2-10-28.5-22.3-28.5v61.4C84.8,95.5,94.8,86.1,94.8,62.7z"/>
				</g>
				<path class="st4" d="M109.4,115.4c-2.9-5.5-15-9.8-24.5-12.4c-0.4,6.5-5.7,11.7-12.3,11.7s-12-5.2-12.3-11.7
					c-9.6,2.6-21.6,6.9-24.5,12.4c-3.7,13-6.7,29.6-6.7,29.6h43.6h43.6C116.1,145,114,127.2,109.4,115.4z"/>
				<path class="st5" d="M56.5,104c1.2,7.7,7.9,13.7,16,13.7s14.8-5.9,16-13.7c-1.2-0.4-2.5-0.7-3.6-1c-0.4,6.5-5.7,11.7-12.3,11.7
					s-12-5.2-12.3-11.7C59,103.3,57.8,103.7,56.5,104z"/>
			</g>
		</g>
	</g>
</g>
</svg>
