<?xml version="1.0" encoding="utf-8"?>
<!-- Generator: Adobe Illustrator 25.2.1, SVG Export Plug-In . SVG Version: 6.00 Build 0)  -->
<svg version="1.1" xmlns="http://www.w3.org/2000/svg" xmlns:xlink="http://www.w3.org/1999/xlink" x="0px" y="0px"
	 viewBox="0 0 144.8 144.8" style="enable-background:new 0 0 144.8 144.8;" xml:space="preserve">
<style type="text/css">
	.st0{fill:#FF9671;}
	.st1{clip-path:url(#SVGID_2_);}
	.st2{fill:#A25A34;}
	.st3{fill:#F1C9A5;}
	.st4{fill:#E4B692;}
	.st5{opacity:0.1;fill:#DDAC8C;enable-background:new    ;}
	.st6{fill:#01561E;}
	.st7{fill:#D1874A;}
</style>
<g id="Réteg_2">
	<rect y="0" class="st0" width="144.8" height="144.8"/>
</g>
<g id="Capa_1">
	<g>
		<g>
			<g>
				<defs>
					<circle id="SVGID_1_" cx="72.4" cy="72.4" r="72.4"/>
				</defs>
				<clipPath id="SVGID_2_">
					<use xlink:href="#SVGID_1_"  style="overflow:visible;"/>
				</clipPath>
				<g class="st1">
					<path class="st2" d="M59.1,98.8h25.2c0,0,12.9-12.8,12.4-29.3S80.5,42.7,66.3,42.7C52.1,42.7,41.6,77.5,59.1,98.8z"/>
					<path class="st3" d="M107.1,116.9c-4.7-8.8-34.7-14.4-34.7-14.4s-30,5.5-34.7,14.4c-3.4,12.3-6.3,27.8-6.3,27.8h41h41
						C113.4,144.8,111.4,128.1,107.1,116.9z"/>
					<path class="st4" d="M72.4,102.6c0,0,30,5.5,34.7,14.4c4.4,11.1,6.3,27.8,6.3,27.8h-41V102.6z"/>
					<rect x="64.2" y="84.6" class="st3" width="16.3" height="27.3"/>
					<rect x="72.4" y="84.6" class="st4" width="8.2" height="27.3"/>
					<path class="st5" d="M64.2,97.3c1.5,4.2,7.4,6.6,11.8,6.6c1.6,0,3.1-0.3,4.6-0.7V84.6H64.2V97.3z"/>
					<path class="st3" d="M93.4,67.4c0-17.1-9.4-26.8-21-26.8s-21,9.7-21,26.8s9.4,30.9,21,30.9C84,98.3,93.4,84.4,93.4,67.4z"/>
					<path class="st4" d="M90.2,79.2c-3.8-0.4-6.4-4.8-5.7-9.7c0.6-5,4.2-8.6,8.1-8.2c3.8,0.4,6.4,4.8,5.7,9.7
						C97.6,75.9,94,79.6,90.2,79.2z"/>
					<path class="st3" d="M46.7,71c-0.6-5,1.9-9.3,5.7-9.7c3.8-0.4,7.4,3.3,8.1,8.2c0.6,4.9-1.9,9.3-5.7,9.7
						C50.9,79.6,47.3,75.9,46.7,71z"/>
					<path class="st4" d="M93.4,67.4c0-17.1-9.4-26.8-21-26.8v57.7C84,98.3,93.4,84.4,93.4,67.4z"/>
					<path class="st6" d="M107.1,116.9c-0.3-0.5-0.7-1-1.1-1.5c-5.1,6.7-18.2,11.5-33.6,11.5h0l0,0c0,0,0,0,0,0
						c-15.4,0-28.5-4.8-33.6-11.5c-0.4,0.5-0.8,1-1.1,1.5c-3.4,12.3-6.3,27.8-6.3,27.8h41h41C113.4,144.8,111.4,128.1,107.1,116.9z"
						/>
					<path class="st7" d="M63.6,49.2c3.5,6.3,12.2,9.9,18.5,14.6c11,8.3,6,26.6,2.2,35c13.9-8.1,24-21.6,18.9-43.5
						C98.2,33.4,80.8,24,62.8,31.8c-14.8-3.9-30,18.6-28.3,39c1.8,20.4,24.7,28,24.7,28S45.5,68.4,63.6,49.2z"/>
				</g>
			</g>
		</g>
	</g>
</g>
</svg>
