<?xml version="1.0" encoding="utf-8"?>
<!-- Generator: Adobe Illustrator 25.2.1, SVG Export Plug-In . SVG Version: 6.00 Build 0)  -->
<svg version="1.1" id="Layer_1" xmlns="http://www.w3.org/2000/svg" xmlns:xlink="http://www.w3.org/1999/xlink" x="0px" y="0px"
	 viewBox="0 0 145 145" style="enable-background:new 0 0 145 145;" xml:space="preserve">
<style type="text/css">
	.st0{fill:#F2A88F;}
	.st1{fill:#3C2A20;}
	.st2{fill:#F1C9A5;}
	.st3{fill:#E4B692;}
	.st4{opacity:0.1;fill:#DDAC8C;enable-background:new    ;}
	.st5{fill:#FFFFFF;}
</style>
<g id="men_4">
	<rect y="0" class="st0" width="145" height="145"/>
	<g>
		<g>
			<ellipse class="st1" cx="71.5" cy="26.7" rx="5.3" ry="5.6"/>
			<ellipse class="st1" cx="79.1" cy="27.8" rx="5.3" ry="5.6"/>
			<ellipse class="st1" cx="93.7" cy="33.4" rx="5.3" ry="5.6"/>
			<ellipse class="st1" cx="99.7" cy="42.9" rx="5.3" ry="5.6"/>
			<ellipse class="st1" cx="102.4" cy="50.7" rx="5.3" ry="5.6"/>
			<ellipse class="st1" cx="62.6" cy="26.8" rx="4.4" ry="4.7"/>
			<ellipse class="st1" cx="103.4" cy="58.8" rx="4.4" ry="4.7"/>
			<ellipse class="st1" cx="103.4" cy="67.1" rx="4.4" ry="4.7"/>
			<ellipse class="st1" cx="99" cy="72.8" rx="4.4" ry="4.7"/>
			<ellipse class="st1" cx="42.1" cy="63.5" rx="4.4" ry="4.7"/>
			<ellipse class="st1" cx="43.6" cy="71.8" rx="4.5" ry="4.7"/>
			<ellipse class="st1" cx="45.9" cy="75.1" rx="4.4" ry="4.7"/>
			<ellipse class="st1" cx="87.4" cy="26.9" rx="4.4" ry="4.7"/>
			<ellipse class="st1" cx="97.1" cy="40.4" rx="4.4" ry="4.7"/>
			<ellipse class="st1" cx="56.4" cy="27.8" rx="4.4" ry="4.7"/>
			<ellipse class="st1" cx="54.2" cy="31.6" rx="4.4" ry="4.7"/>
			<ellipse class="st1" cx="44.6" cy="39.8" rx="5" ry="5.3"/>
			<ellipse class="st1" cx="42.1" cy="47.6" rx="4.4" ry="4.7"/>
			<ellipse class="st1" cx="41.5" cy="56.1" rx="4.4" ry="4.7"/>
			<ellipse class="st1" cx="48" cy="32.4" rx="4.4" ry="4.7"/>
			<path class="st1" d="M49.2,79.3l4.3,1.5c0,0-4.6-12.2-2.5-18.4c2.1-6.3,5.7-17.4,11.2-16.3c5.4,1.1,13.7,2.6,20.1-0.1
				c3.5-1,10.5,4.5,9.8,11.1s4.4,14.1-0.5,22.3c5.1-1.2,10-3.3,10-3.3l1.8-17.2l-1.8-13.6L90.9,27.8l-14.6-0.9l-14.7-0.2L51,31.6
				l-5.7,10.3l-3.3,13.1l2.8,14.6L49.2,79.3z"/>
			<path class="st1" d="M49.2,79.3l4.3,1.5c0,0-4.6-12.2-2.5-18.4c2.1-6.3,5.7-17.4,11.2-16.3c5.4,1.1,13.7,2.6,20.1-0.1
				c3.5-1,10.5,4.5,9.8,11.1s4.4,14.1-0.5,22.3c5.1-1.2,10-3.3,10-3.3l1.8-17.2l-1.8-13.6L90.9,27.8l-14.6-0.9l-14.7-0.2L51,31.6
				l-5.7,10.3l-3.3,13.1l2.8,14.6L49.2,79.3z"/>
		</g>
		<g>
			<g>
				<g>
					<path class="st2" d="M109.4,115.4c-5-9.4-36.9-15.3-36.9-15.3s-31.9,5.9-36.9,15.3c-3.7,13-6.7,29.6-6.7,29.6h43.6h43.6
						C116.1,145,114,127.2,109.4,115.4z"/>
					<path class="st3" d="M72.5,100.1c0,0,31.9,5.9,36.9,15.3c4.7,11.8,6.7,29.6,6.7,29.6H72.5V100.1z"/>
					<rect x="63.8" y="81" class="st2" width="17.4" height="29.1"/>
					<rect x="72.5" y="81" class="st3" width="8.7" height="29.1"/>
					<path class="st4" d="M63.8,94.5c1.6,4.5,7.9,7.1,12.5,7.1c1.7,0,3.3-0.3,4.9-0.8V81H63.8V94.5z"/>
					<path class="st5" d="M109.4,115.4c-2.9-5.5-15-9.8-24.5-12.4c-0.4,6.5-5.7,11.7-12.3,11.7c-6.6,0-12-5.2-12.3-11.7
						c-9.6,2.6-21.6,6.9-24.5,12.4c-3.7,13-6.7,29.6-6.7,29.6h43.6h43.6C116.1,145,114,127.2,109.4,115.4z"/>
					<path class="st2" d="M94.8,62.7c0-18.2-10-28.5-22.3-28.5S50.2,44.5,50.2,62.7c0,7.6,2.3,24.5,6.3,27.9
						c2.7,2.4,11.6,6.6,16,6.6l0,0c0,0,0,0,0,0c0,0,0,0,0,0h0c4.4,0,13.3-4.2,16-6.6C92.7,86.2,94.8,69.6,94.8,62.7z"/>
					<path class="st2" d="M94.8,62.7c0-18.2-10-28.5-22.3-28.5S50.2,44.5,50.2,62.7c0,7.6,2.3,24.5,6.3,27.9
						c2.7,2.4,11.6,6.6,16,6.6l0,0c0,0,0,0,0,0c0,0,0,0,0,0h0c4.4,0,13.3-4.2,16-6.6C92.7,86.2,94.8,69.6,94.8,62.7z"/>
					<path class="st3" d="M72.5,97.1C72.5,97.1,72.5,97.1,72.5,97.1L72.5,97.1c4.4,0,13.3-4.2,16-6.6c4.1-4.4,6.3-20.9,6.3-27.9
						c0-18.2-10-28.5-22.3-28.5V97.1L72.5,97.1z"/>
					<path class="st3" d="M91.4,75.2c-4-0.4-6.8-4.8-6.1-9.7c0.7-5,4.5-8.6,8.6-8.2c4,0.4,6.8,4.8,6.1,9.7
						C99.3,72,95.5,75.7,91.4,75.2z"/>
					<path class="st2" d="M45.2,67c-0.7-5,2-9.3,6.1-9.7c4.1-0.4,7.9,3.3,8.6,8.2c0.7,5-2.1,9.3-6.1,9.7C49.7,75.7,45.8,72,45.2,67z
						"/>
				</g>
			</g>
		</g>
		<path d="M94,59.2c0-0.3,0-0.6-0.1-0.9c0-0.1-0.1-0.2-0.2-0.3c-0.1,0-0.2,0-0.3-0.1c-1.3-0.2-2.7-0.4-4-0.5
			c-1.1-0.1-2.2-0.1-3.2-0.2c-2.1-0.1-4.2,0-6.2,0.2c-1.3,0.2-2.5,0.4-3.7,0.8c-0.6,0.2-1.2,0.4-1.8,0.6c-1,0.3-1.9,0.4-2.9,0.3
			c-0.6-0.1-1.2-0.3-1.8-0.5c-1.1-0.3-2.1-0.7-3.2-0.9c-2.1-0.4-4.3-0.6-6.3-0.6c-1.6,0-3.1,0.1-4.5,0.2c-1.2,0.1-2.4,0.3-3.6,0.5
			c-0.3,0-0.5,0.1-0.7,0.2c-0.1,0-0.2,0.1-0.2,0.3c0,0.7,0,1.4-0.1,2.1c0,0.1,0,0.2,0,0.3c0,0.1,0.1,0.2,0.1,0.2
			c0.1,0,0.2,0.1,0.3,0.1c0.4,0.3,0.6,0.7,0.7,1.1c0.1,0.3,0.2,0.6,0.3,0.9c0.1,0.2,0.1,0.4,0.2,0.6c0.2,0.9,0.4,1.8,0.6,2.8
			c0.2,0.9,0.5,1.7,0.9,2.5c0.5,0.9,1.1,1.6,2.1,2c0.6,0.2,1.2,0.4,1.8,0.5c1.1,0.2,2.2,0.2,3.3,0.1c1.1-0.1,2.2-0.2,3.3-0.6
			c0.8-0.2,1.6-0.6,2.2-1.1c1-0.8,1.8-1.8,2.4-3c0.6-1.1,1-2.3,1.4-3.6c0.1-0.4,0.2-0.7,0.3-1c0.2-0.5,0.5-0.8,1.1-0.9
			c0.2,0,0.4,0,0.5,0c0.4,0,0.8,0.1,1.1,0.4c0.1,0.1,0.2,0.3,0.3,0.5c0.1,0.3,0.3,0.7,0.4,1c0.5,1.5,1.1,2.9,1.9,4.3
			c0.7,1.1,1.5,2.1,2.7,2.7c0.8,0.4,1.7,0.7,2.6,0.9c1.4,0.3,2.8,0.3,4.2,0.3c0.8,0,1.7-0.1,2.5-0.4c0.8-0.2,1.6-0.7,2.1-1.4
			c0.4-0.4,0.6-0.9,0.8-1.5c0.5-1.1,0.7-2.3,1-3.4c0.1-0.6,0.3-1.1,0.4-1.7c0.1-0.3,0.2-0.6,0.2-0.9c0.1-0.3,0.1-0.6,0.3-0.8
			c0.2-0.2,0.4-0.5,0.6-0.6c0.1,0,0.2-0.1,0.2-0.3c0-0.1,0-0.2,0-0.3C94,60.1,94,59.6,94,59.2z M92.2,59.6c-0.5,0-0.8-0.1-0.8-0.2
			c0-0.1,0.4-0.2,0.8-0.2c0.5,0,0.8,0.1,0.8,0.2C93,59.5,92.6,59.6,92.2,59.6z"/>
		<path class="st1" d="M101.6,45.2L90.9,27.8l-14.6-0.9l-14.7-0.2L51,31.6l-5.7,10.3l-3.3,13.1l2.8,14.6l1,10.3l8.3,7.1
			c0,0-1.7-5.7-2.8-11.9c-3.1-0.8-5.8-4-6.3-8c-0.7-5,2-9.3,6.1-9.7c0.5-0.1,1,0,1.5,0c0.4-5.9,3.1-13.1,9.4-11.3
			c5.5,1.6,13.7,2.6,20.1-0.1c5.1-2.4,10.5,4.5,9.8,11.1c0,0.1,0,0.3,0,0.4c0.6-0.1,1.2-0.2,1.8-0.1c4,0.4,6.8,4.8,6.1,9.7
			c-0.6,4.3-3.6,7.7-7.1,8.2c-0.1,4.1-0.7,8.1-2.5,11.1c5.1-1.2,11.1-10.4,11.1-10.4l1.8-17.2L101.6,45.2z"/>
	</g>
</g>
</svg>
