<?xml version="1.0" encoding="utf-8"?>
<!-- Generator: Adobe Illustrator 25.2.1, SVG Export Plug-In . SVG Version: 6.00 Build 0)  -->
<svg version="1.1" id="Réteg_1" xmlns="http://www.w3.org/2000/svg" xmlns:xlink="http://www.w3.org/1999/xlink" x="0px" y="0px"
	 viewBox="0 0 480 480" style="enable-background:new 0 0 480 480;" xml:space="preserve">
<style type="text/css">
	.st0{fill:#D3D3D3;}
	.st1{fill:#FFFFFF;}
	.st2{fill:#D7DBE0;}
	.st3{fill:#5C546A;}
</style>
<g id="Réteg_2_1_">
	<rect y="0" class="st0" width="480" height="480"/>
</g>
<g id="Capa_1">
	<g>
		<g>
			<g>
				<path class="st1" d="M240,360.1c-27.9,0-53.3-12-72-31.4c0,11.6-0.4,28.4-3.5,40.6c2,1.2,3.6,3.3,3.9,5.8
					c4,32.5,34.8,57,71.6,57s67.6-24.5,71.6-57c0.3-2.5,1.8-4.5,3.9-5.8c-3.1-12.2-3.5-29-3.5-40.6
					C293.3,348.1,267.9,360.1,240,360.1z"/>
			</g>
		</g>
		<g>
			<g>
				<path class="st2" d="M310.4,330.2c-18.5,18.5-43.2,29.9-70.4,29.9c-27.9,0-53.3-12-72-31.4c0,11.6-0.4,28.4-3.5,40.6
					c2,1.2,3.6,3.3,3.9,5.8c1.8,14.4,8.8,27.1,19.2,37C235.8,405.3,290.4,357.7,310.4,330.2z"/>
			</g>
		</g>
		<path class="st1" d="M341.1,178.8c-11-49.1-52.2-85.7-101.1-85.7c-53.6,0-98,44-103.4,100.3c-0.4,2.2-0.6,4.4-0.6,6.7v5v43v13
			c0,4.8,1,9.3,2.9,13.3c11,49.1,52.2,85.7,101.1,85.7c53.6,0,98-44,103.4-100.3c0.4-2.2,0.6-4.4,0.6-6.7v-5v-43v-13
			C344,187.3,343,182.8,341.1,178.8z"/>
		<g>
			<path class="st3" d="M61.6,400.5c44,48.8,107.6,79.5,178.4,79.5s134.4-30.7,178.4-79.5c-7.7-10.4-18.5-18.8-32.4-22.7
				c-0.3-0.1-0.6-0.2-1-0.2l-63.9-9.6c-0.4-0.1-1.2-0.1-1.6-0.1c-4,0-7.4,3-7.9,7c-4,32.5-34.8,57-71.6,57s-67.6-24.5-71.6-57
				c-0.5-4.1-4.2-7.2-8.1-7c-0.5,0-0.9,0-1.4,0.1L95,377.7c-0.3,0-0.6,0.1-1,0.2C80.1,381.8,69.3,390.2,61.6,400.5z"/>
		</g>
	</g>
</g>
</svg>
