<?xml version="1.0" encoding="utf-8"?>
<!-- Generator: Adobe Illustrator 25.2.1, SVG Export Plug-In . SVG Version: 6.00 Build 0)  -->
<svg version="1.1" id="Réteg_1" xmlns="http://www.w3.org/2000/svg" xmlns:xlink="http://www.w3.org/1999/xlink" x="0px" y="0px"
	 viewBox="0 0 160 50" style="enable-background:new 0 0 160 50;" xml:space="preserve">
<style type="text/css">
	.st0{fill-rule:evenodd;clip-rule:evenodd;fill:#FFC107;}
</style>
<g>
	<path class="st0" d="M25.6,9.2h-21C2.1,9.2,0,7.1,0,4.6l0,0C0,2.1,2.1,0,4.6,0h21c2.5,0,4.6,2.1,4.6,4.6l0,0
		C30.2,7.1,28.1,9.2,25.6,9.2z"/>
	<path class="st0" d="M155.4,9.2H43.5c-2.5,0-4.6-2.1-4.6-4.6l0,0C38.9,2.1,41,0,43.5,0h111.9c2.5,0,4.6,2.1,4.6,4.6l0,0
		C160,7.1,157.9,9.2,155.4,9.2z"/>
	<path class="st0" d="M25.6,29.6h-21C2.1,29.6,0,27.5,0,25l0,0c0-2.5,2.1-4.6,4.6-4.6h21c2.5,0,4.6,2.1,4.6,4.6l0,0
		C30.2,27.5,28.1,29.6,25.6,29.6z"/>
	<path class="st0" d="M155.4,29.6H43.5c-2.5,0-4.6-2.1-4.6-4.6l0,0c0-2.5,2.1-4.6,4.6-4.6h111.9c2.5,0,4.6,2.1,4.6,4.6l0,0
		C160,27.5,157.9,29.6,155.4,29.6z"/>
	<path class="st0" d="M25.6,50.2h-21c-2.5,0-4.6-2.1-4.6-4.6l0,0C0,43,2.1,41,4.6,41h21c2.5,0,4.6,2.1,4.6,4.6l0,0
		C30.2,48.1,28.1,50.2,25.6,50.2z"/>
	<path class="st0" d="M155.4,50.2H43.5c-2.5,0-4.6-2.1-4.6-4.6l0,0c0-2.5,2.1-4.6,4.6-4.6h111.9c2.5,0,4.6,2.1,4.6,4.6l0,0
		C160,48.1,157.9,50.2,155.4,50.2z"/>
</g>
</svg>
